{
  "asset": {
    "version": "2.0",
    "generator": "THREE.GLTFExporter r171"
  },
  "scenes": [
    {
      "name": "Scene",
      "nodes": [
        13
      ]
    }
  ],
  "scene": 0,
  "nodes": [
    {
      "matrix": [
        -0.29086462589180684,
        -0.05518903353397775,
        -0.9551711964083935,
        0,
        -0.7711009137257037,
        0.6045246461343226,
        0.19988335568841364,
        0,
        0.566393171500188,
        0.7946723511029319,
        -0.21839116272315806,
        0,
        6.226034164428711,
        5.036881446838379,
        4.662550926208496,
        1
      ],
      "name": "Light",
      "extras": {
        "name": "Light"
      },
      "extensions": {
        "KHR_lights_punctual": {
          "light": 0
        }
      }
    },
    {
      "matrix": [
        0.6859206347797677,
        -1.9112529336950956e-8,
        -0.7276763573390443,
        0,
        -0.32401346065627035,
        0.8953956546680355,
        -0.305420854447231,
        0,
        0.6515582539909754,
        0.4452714015268988,
        0.6141703497279187,
        0,
        7.358891487121582,
        4.958309173583984,
        6.925790786743164,
        1
      ],
      "name": "Camera",
      "extras": {
        "name": "Camera"
      },
      "camera": 0
    },
    {
      "name": "Cube010",
      "mesh": 0
    },
    {
      "name": "Cube010_1",
      "mesh": 1
    },
    {
      "matrix": [
        1,
        0,
        0,
        0,
        0,
        1,
        0,
        0,
        0,
        0,
        1,
        0,
        0,
        0.01499602198600769,
        -0.00046411575749516487,
        1
      ],
      "name": "Base",
      "extras": {
        "name": "Base"
      },
      "children": [
        2,
        3
      ]
    },
    {
      "matrix": [
        1,
        0,
        0,
        0,
        0,
        1,
        0,
        0,
        0,
        0,
        1,
        0,
        0,
        0.024063080549240112,
        0.0011383662931621075,
        1
      ],
      "name": "Top",
      "extras": {
        "name": "Top"
      },
      "mesh": 2
    },
    {
      "matrix": [
        1,
        0,
        0,
        0,
        0,
        -0.2993034968644679,
        0.9541580017980777,
        0,
        0,
        -0.9541580017980777,
        -0.2993034968644679,
        0,
        0,
        0.020191404968500137,
        0.03029058128595352,
        1
      ],
      "name": "Wheel",
      "extras": {
        "name": "Wheel"
      },
      "mesh": 3
    },
    {
      "matrix": [
        66.34495544433594,
        0,
        0,
        0,
        0,
        66.34495544433594,
        0,
        0,
        0,
        0,
        66.34495544433594,
        0,
        0,
        -0.9679305553436279,
        -0.5058488845825195,
        1
      ],
      "name": "Wireless_Mouse",
      "extras": {
        "name": "Wireless Mouse"
      },
      "children": [
        4,
        5,
        6
      ]
    },
    {
      "matrix": [
        66.34495544433594,
        0,
        0,
        0,
        0,
        -19.85728401432045,
        63.30358558041252,
        0,
        0,
        -63.30358558041252,
        -19.85728401432045,
        0,
        0.0000042747983570734505,
        0.3716675043106079,
        1.5037784576416016,
        1
      ],
      "name": "Wheel001",
      "extras": {
        "name": "Wheel.001"
      },
      "mesh": 3
    },
    {
      "matrix": [
        66.34495544433594,
        0,
        0,
        0,
        0,
        66.34495544433594,
        0,
        0,
        0,
        0,
        66.34495544433594,
        0,
        0,
        0.6285336017608643,
        -0.4303240180015564,
        1
      ],
      "name": "Top001",
      "extras": {
        "name": "Top.001"
      },
      "mesh": 2
    },
    {
      "name": "Cube010",
      "mesh": 0
    },
    {
      "name": "Cube010_1",
      "mesh": 1
    },
    {
      "matrix": [
        66.34495544433594,
        0,
        0,
        0,
        0,
        66.34495544433594,
        0,
        0,
        0,
        0,
        66.34495544433594,
        0,
        0,
        0.026979990303516388,
        -0.5366407036781311,
        1
      ],
      "name": "Base001",
      "extras": {
        "name": "Base.001"
      },
      "children": [
        10,
        11
      ]
    },
    {
      "name": "mouse.glb",
      "children": [
        0,
        1,
        7,
        8,
        9,
        12
      ]
    }
  ],
  "extensions": {
    "KHR_lights_punctual": {
      "lights": [
        {
          "name": "Light",
          "color": [
            1,
            1,
            1
          ],
          "intensity": 400,
          "type": "point"
        }
      ]
    }
  },
  "cameras": [
    {
      "type": "perspective",
      "perspective": {
        "aspectRatio": 1.7701492537313432,
        "yfov": 0.39959652046304894,
        "zfar": 100,
        "znear": 0.10000000149011612
      },
      "name": "PerspectiveCamera"
    }
  ],
  "bufferViews": [
    {
      "buffer": 0,
      "byteOffset": 0,
      "byteLength": 1152,
      "target": 34962,
      "byteStride": 12
    },
    {
      "buffer": 0,
      "byteOffset": 1152,
      "byteLength": 1152,
      "target": 34962,
      "byteStride": 12
    },
    {
      "buffer": 0,
      "byteOffset": 2304,
      "byteLength": 768,
      "target": 34962,
      "byteStride": 8
    },
    {
      "buffer": 0,
      "byteOffset": 3072,
      "byteLength": 864,
      "target": 34963
    },
    {
      "buffer": 0,
      "byteOffset": 3936,
      "byteLength": 2844,
      "target": 34962,
      "byteStride": 12
    },
    {
      "buffer": 0,
      "byteOffset": 6780,
      "byteLength": 2844,
      "target": 34962,
      "byteStride": 12
    },
    {
      "buffer": 0,
      "byteOffset": 9624,
      "byteLength": 1896,
      "target": 34962,
      "byteStride": 8
    },
    {
      "buffer": 0,
      "byteOffset": 11520,
      "byteLength": 2112,
      "target": 34963
    },
    {
      "buffer": 0,
      "byteOffset": 13632,
      "byteLength": 2304,
      "target": 34962,
      "byteStride": 12
    },
    {
      "buffer": 0,
      "byteOffset": 15936,
      "byteLength": 2304,
      "target": 34962,
      "byteStride": 12
    },
    {
      "buffer": 0,
      "byteOffset": 18240,
      "byteLength": 1536,
      "target": 34962,
      "byteStride": 8
    },
    {
      "buffer": 0,
      "byteOffset": 19776,
      "byteLength": 1296,
      "target": 34963
    },
    {
      "buffer": 0,
      "byteOffset": 21072,
      "byteLength": 7464,
      "target": 34962,
      "byteStride": 12
    },
    {
      "buffer": 0,
      "byteOffset": 28536,
      "byteLength": 7464,
      "target": 34962,
      "byteStride": 12
    },
    {
      "buffer": 0,
      "byteOffset": 36000,
      "byteLength": 4976,
      "target": 34962,
      "byteStride": 8
    },
    {
      "buffer": 0,
      "byteOffset": 40976,
      "byteLength": 6360,
      "target": 34963
    }
  ],
  "buffers": [
    {
      "byteLength": 47336,
      "uri": "data:application/octet-stream;base64,"
    }
  ],
  "accessors": [
    {
      "bufferView": 0,
      "componentType": 5126,
      "count": 96,
      "max": [
        0.03215372562408447,
        0.014994903467595577,
        0.04699710011482239
      ],
      "min": [
        -0.03215372562408447,
        -0.00567850936204195,
        -0.04699710011482239
      ],
      "type": "VEC3"
    },
    {
      "bufferView": 1,
      "componentType": 5126,
      "count": 96,
      "max": [
        0.8600937128067017,
        0.9875975847244263,
        0.9863777756690979
      ],
      "min": [
        -0.8600937128067017,
        0.1644962877035141,
        -0.9485532641410828
      ],
      "type": "VEC3"
    },
    {
      "bufferView": 2,
      "componentType": 5126,
      "count": 96,
      "max": [
        0.9616220593452454,
        0.9931482672691345
      ],
      "min": [
        0.5659714937210083,
        0.40058308839797974
      ],
      "type": "VEC2"
    },
    {
      "bufferView": 3,
      "componentType": 5123,
      "count": 432,
      "max": [
        95
      ],
      "min": [
        0
      ],
      "type": "SCALAR"
    },
    {
      "bufferView": 4,
      "componentType": 5126,
      "count": 237,
      "max": [
        0.03215372562408447,
        0.01108518522232771,
        0.04699710011482239
      ],
      "min": [
        -0.03215372562408447,
        -0.014994903467595577,
        -0.04699710011482239
      ],
      "type": "VEC3"
    },
    {
      "bufferView": 5,
      "componentType": 5126,
      "count": 237,
      "max": [
        0.9752295613288879,
        -0.22080670297145844,
        0.8690481781959534
      ],
      "min": [
        -0.9752295613288879,
        -1,
        -0.9033607840538025
      ],
      "type": "VEC3"
    },
    {
      "bufferView": 6,
      "componentType": 5126,
      "count": 237,
      "max": [
        0.5522679686546326,
        0.9931482672691345
      ],
      "min": [
        0.006851746700704098,
        0.0068517327308654785
      ],
      "type": "VEC2"
    },
    {
      "bufferView": 7,
      "componentType": 5123,
      "count": 1056,
      "max": [
        236
      ],
      "min": [
        0
      ],
      "type": "SCALAR"
    },
    {
      "bufferView": 8,
      "componentType": 5126,
      "count": 192,
      "max": [
        0.028240351006388664,
        0.011753104627132416,
        0.0435471311211586
      ],
      "min": [
        -0.028240351006388664,
        -0.011753104627132416,
        -0.0435471311211586
      ],
      "type": "VEC3"
    },
    {
      "bufferView": 9,
      "componentType": 5126,
      "count": 192,
      "max": [
        1,
        0.9969536066055298,
        1
      ],
      "min": [
        -1,
        -0.6870814561843872,
        -0.7500973343849182
      ],
      "type": "VEC3"
    },
    {
      "bufferView": 10,
      "componentType": 5126,
      "count": 192,
      "max": [
        0.9912236928939819,
        0.9912236928939819
      ],
      "min": [
        0.008776317350566387,
        0.08287930488586426
      ],
      "type": "VEC2"
    },
    {
      "bufferView": 11,
      "componentType": 5123,
      "count": 648,
      "max": [
        191
      ],
      "min": [
        0
      ],
      "type": "SCALAR"
    },
    {
      "bufferView": 12,
      "componentType": 5126,
      "count": 622,
      "max": [
        0.0032905107364058495,
        0.010014031082391739,
        0.00618048757314682
      ],
      "min": [
        -0.0032905107364058495,
        -0.010014031082391739,
        -0.00618048757314682
      ],
      "type": "VEC3"
    },
    {
      "bufferView": 13,
      "componentType": 5126,
      "count": 622,
      "max": [
        1,
        0.9970030784606934,
        0.981259286403656
      ],
      "min": [
        -1,
        -0.9996904730796814,
        -0.9998251795768738
      ],
      "type": "VEC3"
    },
    {
      "bufferView": 14,
      "componentType": 5126,
      "count": 622,
      "max": [
        0.9514560699462891,
        0.9926154017448425
      ],
      "min": [
        0.0073846084997057915,
        0.007384598255157471
      ],
      "type": "VEC2"
    },
    {
      "bufferView": 15,
      "componentType": 5123,
      "count": 3180,
      "max": [
        621
      ],
      "min": [
        0
      ],
      "type": "SCALAR"
    }
  ],
  "materials": [
    {
      "pbrMetallicRoughness": {
        "baseColorFactor": [
          0.03500000014901161,
          0.03500000014901161,
          0.03500000014901161,
          1
        ],
        "metallicFactor": 0,
        "roughnessFactor": 0.03999999910593033
      },
      "doubleSided": true,
      "name": "Mouse - Shiny Grey"
    },
    {
      "pbrMetallicRoughness": {
        "baseColorFactor": [
          0.03999999910593033,
          0.03999999910593033,
          0.03999999910593033,
          1
        ],
        "metallicFactor": 0,
        "roughnessFactor": 0.3499999940395355
      },
      "doubleSided": true,
      "name": "Mouse - Mat Grey"
    },
    {
      "pbrMetallicRoughness": {
        "baseColorFactor": [
          0.03999999910593033,
          0.03999999910593033,
          0.03999999910593033,
          1
        ],
        "metallicFactor": 0,
        "roughnessFactor": 0.6000000238418579
      },
      "doubleSided": true,
      "name": "Mouse - Wheel Grey"
    }
  ],
  "meshes": [
    {
      "primitives": [
        {
          "mode": 4,
          "attributes": {
            "POSITION": 0,
            "NORMAL": 1,
            "TEXCOORD_0": 2
          },
          "indices": 3,
          "material": 0
        }
      ]
    },
    {
      "primitives": [
        {
          "mode": 4,
          "attributes": {
            "POSITION": 4,
            "NORMAL": 5,
            "TEXCOORD_0": 6
          },
          "indices": 7,
          "material": 1
        }
      ]
    },
    {
      "primitives": [
        {
          "mode": 4,
          "attributes": {
            "POSITION": 8,
            "NORMAL": 9,
            "TEXCOORD_0": 10
          },
          "indices": 11,
          "material": 1
        }
      ]
    },
    {
      "primitives": [
        {
          "mode": 4,
          "attributes": {
            "POSITION": 12,
            "NORMAL": 13,
            "TEXCOORD_0": 14
          },
          "indices": 15,
          "material": 2
        }
      ]
    }
  ],
  "extensionsUsed": [
    "KHR_lights_punctual"
  ]
}